<svg xmlns="http://www.w3.org/2000/svg" width="38.347" height="38.329" viewBox="0 0 38.347 38.329"><defs><style>.a{fill:#39b960;}</style></defs><g transform="translate(0 0)"><path class="a" d="M36.588,42.718H1.743a1.743,1.743,0,0,0,0,3.485H36.587a1.743,1.743,0,0,0,0-3.485Z" transform="translate(0 -7.875)"/><path class="a" d="M4.412,33.233a1.743,1.743,0,0,0,0,3.486H34.9a1.743,1.743,0,0,0,0-3.486h-.435V17.552H34.9a.871.871,0,1,0,0-1.741H4.412a.871.871,0,1,0,0,1.741h.436v15.68H4.412ZM30.981,17.552v15.68H25.754V17.552Zm-8.712,0v15.68H17.042V17.552Zm-13.938,0h5.226v15.68H8.331Z" transform="translate(-0.491 -2.921)"/><path class="a" d="M1.743,11.335H36.6a1.743,1.743,0,0,0,.565-3.392L19.881.164a1.746,1.746,0,0,0-1.429,0L1.028,8a1.742,1.742,0,0,0,.715,3.331Z" transform="translate(0 -0.012)"/></g></svg>